<?xml version="1.0" standalone="no"?><!DOCTYPE svg PUBLIC "-//W3C//DTD SVG 1.1//EN" "http://www.w3.org/Graphics/SVG/1.1/DTD/svg11.dtd"><svg class="icon" width="200px" height="200.00px" viewBox="0 0 1024 1024" version="1.1" xmlns="http://www.w3.org/2000/svg"><path d="M192 384h640a42.688 42.688 0 0 1 42.688 42.688v362.624A42.688 42.688 0 0 1 832 832H192v106.688a21.312 21.312 0 0 0 21.312 21.312h725.376c11.776 0 21.312-9.6 21.312-21.312V308.8l-10.112-10.112h-126.528a98.048 98.048 0 0 1-98.048-98.048v-128L716.8 64H213.312A21.312 21.312 0 0 0 192 85.312V384z m-64 448H42.688A42.688 42.688 0 0 1 0 789.312V426.688A42.688 42.688 0 0 1 42.688 384H128V85.312C128 38.208 166.208 0 213.312 0h530.048L1024 282.432v656.256c0 47.104-38.208 85.312-85.312 85.312H213.312A85.312 85.312 0 0 1 128 938.688V832z m-37.76-359.488v274.176H294.4v-38.4h-159.36V625.28h143.616v-38.4H135.104V510.912H288v-38.4H90.24z m227.648 0l91.776 132.48-97.92 141.696h54.912l70.656-105.984 70.656 105.984h54.912L464.192 604.992 556.8 472.512h-54.912L437.312 569.28 372.8 472.512h-54.912z m273.792 0v274.176h204.288v-38.4h-159.36V625.28h143.616v-38.4H636.608V510.912h152.832v-38.4h-197.76z" /></svg>