<?xml version="1.0" standalone="no"?><!DOCTYPE svg PUBLIC "-//W3C//DTD SVG 1.1//EN" "http://www.w3.org/Graphics/SVG/1.1/DTD/svg11.dtd"><svg class="icon" width="200px" height="200.00px" viewBox="0 0 1024 1024" version="1.1" xmlns="http://www.w3.org/2000/svg"><path d="M669.568 0c41.856 0 81.92 39.04 149.312 107.52l29.12 29.12 29.12 29.12c68.48 67.328 107.52 107.52 107.52 149.248v551.424A157.568 157.568 0 0 1 827.008 1024H354.432a157.44 157.44 0 0 1-157.44-157.568v-118.144H78.72a39.488 39.488 0 0 1-39.36-39.296V472.64c0-21.632 17.728-39.36 39.36-39.36h118.272V157.568A157.44 157.44 0 0 1 354.432 0z m-27.968 78.72H354.432c-43.328 0-78.72 35.584-78.72 78.848V433.28h393.92c21.632 0 39.36 17.728 39.36 39.36v236.352a39.488 39.488 0 0 1-39.36 39.296H275.712v118.144c0 43.264 35.392 78.848 78.72 78.848h472.576c43.328 0 78.912-35.584 78.912-78.848v-512c0-39.424-39.488-39.424-78.912-39.424h-118.016a39.488 39.488 0 0 1-39.424-39.296V147.52c-0.064-31.872-1.792-62.272-27.968-68.8zM205.568 499.2H153.6v187.392h21.248V610.816h31.744c41.216 0 68.608-18.432 68.608-57.344 0-40.192-27.392-54.272-69.632-54.272z m154.368 0h-46.08v187.392h46.848c56.832 0 86.784-35.584 86.784-94.464 0-58.88-29.952-92.928-87.552-92.928z m235.264 0H488.704v187.392h21.248V601.088h72.192v-17.92H509.952V517.12H595.2V499.2z m-237.056 17.408c45.568 0 67.584 27.648 67.584 75.52s-22.016 77.056-67.584 77.056h-23.04V516.608z m-155.648-0.256c34.304 0 51.712 8.96 51.712 37.12 0 27.904-16.384 39.936-50.688 39.936h-28.672V516.352z" /></svg>