<?xml version="1.0" standalone="no"?><!DOCTYPE svg PUBLIC "-//W3C//DTD SVG 1.1//EN" "http://www.w3.org/Graphics/SVG/1.1/DTD/svg11.dtd"><svg class="icon" width="200px" height="200.00px" viewBox="0 0 1024 1024" version="1.1" xmlns="http://www.w3.org/2000/svg"><path d="M445.060425 896.196219c-167.785378-12.606109-271.644817-72.180949-271.644817-120.153544 0-44.561915 91.731214-100.6964 245.229191-117.514437 16.032138-1.759063 28.15934-15.291265 28.15934-31.4155l0-48.804543c0-10.661827-5.384637-20.614503-14.303774-26.447349-65.191768-42.617633-108.98211-131.170458-108.98211-220.386386 0-212.440413 104.83158-237.004879 183.678346-237.004879S690.87597 119.034047 690.87597 331.473437c0 57.723679-17.590634 114.922403-49.530067 161.088862-9.937326 14.349823-6.341429 34.038234 8.008394 43.960211 14.319124 9.905604 34.038234 6.341429 43.960211-8.008394 39.191604-56.612369 60.762899-126.603443 60.762899-197.040678 0-248.12924-134.25675-300.205293-246.879784-300.205293s-246.879784 52.076052-246.879784 300.205293c0 104.877629 47.894823 206.128661 123.285884 263.204587l0 4.582365c-167.060877 23.947412-273.388531 91.977831-273.388531 176.781262 0 94.724385 132.666532 168.341033 330.124719 183.169763 0.802272 0.061398 1.604544 0.092098 2.391467 0.092098 16.370853 0 30.227442-12.636808 31.476899-29.239951C475.519134 912.674519 462.46584 897.507074 445.060425 896.196219zM907.018705 573.740156 545.04665 573.740156c-20.87647 0-37.85005 16.972557-37.85005 37.85005l0 268.357957c0 20.87647 16.972557 37.85005 37.85005 37.85005L907.018705 917.798213c20.87647 0 37.85005-16.972557 37.85005-37.85005L944.868755 611.590206C944.868755 590.712713 927.895175 573.740156 907.018705 573.740156zM881.667318 854.596775l-311.269279 0L570.398038 636.941594l311.269279 0L881.667318 854.596775zM647.301546 731.679281l94.802156 0c17.451464 0 31.600719-14.147208 31.600719-31.600719 0-17.449417-14.149255-31.600719-31.600719-31.600719l-94.802156 0c-17.453511 0-31.600719 14.151301-31.600719 31.600719C615.700827 717.532073 629.848035 731.679281 647.301546 731.679281zM645.989667 826.481438l37.926798 0c17.451464 0 31.600719-14.147208 31.600719-31.600719 0-17.449417-14.149255-31.600719-31.600719-31.600719l-37.926798 0c-17.453511 0-31.600719 14.151301-31.600719 31.600719C614.388948 812.334229 628.536156 826.481438 645.989667 826.481438z" /></svg>