<?xml version="1.0" standalone="no"?><!DOCTYPE svg PUBLIC "-//W3C//DTD SVG 1.1//EN" "http://www.w3.org/Graphics/SVG/1.1/DTD/svg11.dtd"><svg class="icon" width="200px" height="200.00px" viewBox="0 0 1024 1024" version="1.1" xmlns="http://www.w3.org/2000/svg"><path d="M353.52381 0C267.377778 0 197.485714 69.892063 197.485714 157.663492v276.31746H78.831746c-21.130159 0-39.009524 17.879365-39.009524 39.009524v235.68254C39.822222 731.428571 57.701587 747.68254 78.831746 747.68254h118.653968v118.653968c0 87.771429 69.892063 157.663492 157.663492 157.663492h471.36508c86.146032 0 157.663492-69.892063 157.663492-157.663492V315.326984c0-42.260317-39.009524-81.269841-107.276191-149.536508l-29.257143-29.257143-29.257142-29.257143C750.120635 39.009524 709.485714 0 668.850794 0H353.52381z m9.75238 81.269841h289.320635c29.257143 6.501587 27.631746 42.260317 27.631746 76.393651V276.31746c0 21.130159 17.879365 39.009524 39.009524 39.009524h118.653968c39.009524 0 79.644444 0 79.644445 39.009524v508.749206c0 42.260317-35.75873 78.019048-79.644445 78.019048H363.27619c-43.885714 0-79.644444-35.75873-79.644444-78.019048V747.68254h396.596825c21.130159 0 39.009524-17.879365 39.009524-39.009524V472.990476c0-21.130159-17.879365-39.009524-39.009524-39.009524H283.631746V159.288889C283.631746 117.028571 319.390476 81.269841 363.27619 81.269841zM169.853968 503.873016h40.634921c19.504762 0 34.133333 4.87619 42.260317 13.003174 9.752381 8.126984 14.628571 21.130159 14.628572 39.009524s-4.87619 30.88254-14.628572 42.260318c-9.752381 9.752381-24.380952 14.628571-45.511111 14.628571h-16.253968V682.666667H169.853968V503.873016z m130.031746 0h40.634921c19.504762 0 34.133333 4.87619 42.260317 13.003174 9.752381 8.126984 14.628571 21.130159 14.628572 39.009524s-4.87619 30.88254-14.628572 42.260318c-9.752381 9.752381-24.380952 14.628571-45.511111 14.628571h-16.253968V682.666667H299.885714V503.873016z m130.031746 0h113.777778v21.130159h-47.136508V682.666667h-21.130159v-157.663492H429.91746V503.873016zM186.107937 520.126984v65.015873h16.253968c17.879365 0 29.257143-3.250794 37.384127-8.126984 8.126984-4.87619 11.377778-14.628571 11.377778-26.006349 0-9.752381-3.250794-17.879365-11.377778-22.755556-6.501587-4.87619-17.879365-8.126984-32.507937-8.126984H186.107937z m130.031746 0v65.015873h16.253968c17.879365 0 29.257143-3.250794 37.384127-8.126984 8.126984-4.87619 11.377778-14.628571 11.377778-26.006349 0-9.752381-3.250794-17.879365-11.377778-22.755556-6.501587-4.87619-17.879365-8.126984-32.507937-8.126984H316.139683z" /></svg>