<?xml version="1.0" standalone="no"?><!DOCTYPE svg PUBLIC "-//W3C//DTD SVG 1.1//EN" "http://www.w3.org/Graphics/SVG/1.1/DTD/svg11.dtd"><svg class="icon" width="200px" height="200.00px" viewBox="0 0 1024 1024" version="1.1" xmlns="http://www.w3.org/2000/svg"><path d="M445.2 931.7c-17.8 0-34.4-7.1-46.8-19.9L109.7 612.7c-12.1-12.5-18.5-28.9-18.2-46.3 0.3-17.4 7.4-33.6 19.8-45.6l350.2-338c12.2-11.8 28.2-18.2 45.1-18.2 2.3 0 4.7 0.1 7 0.4l271.9 29.3c31.5 3.4 55.9 28.8 57.9 60.5l17 269.7c1.2 19.1-6 37.6-19.7 50.9L490.3 913.5c-12.2 11.8-28.2 18.2-45.1 18.2z m61.5-739.1c-9.6 0-18.8 3.7-25.7 10.4L130.8 541c-7.1 6.9-11.1 16.1-11.3 26s3.5 19.2 10.4 26.3l288.7 299.2c7 7.3 16.5 11.3 26.6 11.3 9.6 0 18.7-3.7 25.7-10.4l350.4-338.2c7.8-7.5 11.9-18.1 11.2-28.9l-17-269.7c-1.1-18-15-32.5-32.9-34.4l-271.9-29.3c-1.3-0.2-2.7-0.3-4-0.3z"  /><path fill="#ffffff" d="M586.7 547.1c-28.3 0-54.8-11.2-74.5-31.6-39.6-41.1-38.5-106.7 2.6-146.3 19.4-18.7 44.9-29 71.8-29 28.3 0 54.8 11.2 74.5 31.6 19.2 19.9 29.5 46.1 29 73.7s-11.7 53.4-31.6 72.6c-19.3 18.7-44.8 29-71.8 29z m0-179c-19.6 0-38.3 7.5-52.4 21.2-29.9 28.9-30.8 76.8-1.9 106.7 14.4 14.9 33.6 23.1 54.3 23.1 19.6 0 38.3-7.5 52.4-21.2 14.5-14 22.7-32.8 23.1-53 0.4-20.2-7.2-39.2-21.2-53.8-14.3-14.8-33.6-23-54.3-23z"  /></svg>