<?xml version="1.0" standalone="no"?><!DOCTYPE svg PUBLIC "-//W3C//DTD SVG 1.1//EN" "http://www.w3.org/Graphics/SVG/1.1/DTD/svg11.dtd"><svg class="icon" width="200px" height="200.00px" viewBox="0 0 1024 1024" version="1.1" xmlns="http://www.w3.org/2000/svg"><path d="M574.283294 50.416941a148.781176 148.781176 0 0 1 104.809412 42.767059l7.228235 7.710118 198.415059 228.291764c19.757176 22.648471 31.563294 50.718118 33.972706 80.112942l0.180706 4.276705h0.240941v458.872471c0 75.173647-58.428235 136.613647-132.397177 141.432471l-9.276235 0.301176H243.350588A141.733647 141.733647 0 0 1 101.978353 881.844706l-0.301177-9.336471V192.150588c0-75.173647 58.428235-136.613647 132.397177-141.43247l9.336471-0.301177h330.87247z m0 56.681412H243.410824c-44.212706 0-80.534588 33.731765-84.690824 76.860235l-0.361412 8.192v680.297412c0 44.212706 33.731765 80.534588 76.860236 84.630588l8.192 0.421647h534.046117c44.152471 0 80.474353-33.731765 84.630588-76.860235l0.361412-8.192V420.442353c0-8.975059-1.505882-17.829647-4.336941-26.262588H672.225882c-44.212706 0-80.534588-33.731765-84.630588-76.8l-0.421647-8.192 0.060235-201.185883a94.268235 94.268235 0 0 0-4.096-0.481882l-8.914823-0.421647z m105.170824 606.569412c16.263529 0 29.394824 13.492706 29.394823 30.117647 0 14.757647-10.420706 27.105882-24.094117 29.635764l-5.300706 0.481883H341.353412a29.756235 29.756235 0 0 1-29.394824-30.117647c0-14.757647 10.420706-27.105882 24.094118-29.635765l5.300706-0.481882H679.454118z m0-206.908236c16.263529 0 29.394824 13.432471 29.394823 30.117647 0 14.757647-10.420706 27.105882-24.094117 29.57553l-5.300706 0.542118H341.353412a29.756235 29.756235 0 0 1-29.394824-30.117648c0-14.817882 10.420706-27.105882 24.094118-29.635764l5.300706-0.481883H679.454118zM643.915294 138.541176v170.646589a28.310588 28.310588 0 0 0 23.250824 27.888941l5.12 0.481882h144.564706L643.915294 138.541176z" /></svg>